<mxfile host="Electron" modified="2023-04-20T09:48:33.987Z" agent="Mozilla/5.0 (Windows NT 10.0; Win64; x64) AppleWebKit/537.36 (KHTML, like Gecko) draw.io/21.1.2 Chrome/106.0.5249.199 Electron/21.4.3 Safari/537.36" etag="gkE5_JZtCshK8szZaHu5" version="21.1.2" type="device">
  <diagram name="Page-1" id="0b4ebYuoWi5POrmicysn">
    <mxGraphModel dx="1036" dy="606" grid="1" gridSize="10" guides="1" tooltips="1" connect="1" arrows="1" fold="1" page="1" pageScale="1" pageWidth="850" pageHeight="1100" math="0" shadow="0">
      <root>
        <mxCell id="0" />
        <mxCell id="1" parent="0" />
        <mxCell id="FIXtqXKKG1aBjTDR9iln-1" value="" style="whiteSpace=wrap;html=1;aspect=fixed;" parent="1" vertex="1">
          <mxGeometry x="105" y="50" width="640" height="640" as="geometry" />
        </mxCell>
        <mxCell id="FIXtqXKKG1aBjTDR9iln-2" value="&lt;span style=&quot;font-size: 22px;&quot;&gt;&lt;b&gt;VAGA TRIP&lt;/b&gt;&lt;/span&gt;" style="ellipse;whiteSpace=wrap;html=1;aspect=fixed;" parent="1" vertex="1">
          <mxGeometry x="360" y="250" width="140" height="140" as="geometry" />
        </mxCell>
        <mxCell id="UNwPtMYkR0rYs0qdX-2g-1" value="" style="rounded=0;whiteSpace=wrap;html=1;" parent="1" vertex="1">
          <mxGeometry x="365" y="110" width="120" height="60" as="geometry" />
        </mxCell>
        <mxCell id="UNwPtMYkR0rYs0qdX-2g-2" value="" style="endArrow=classic;startArrow=classic;html=1;rounded=0;entryX=0.5;entryY=1;entryDx=0;entryDy=0;" parent="1" source="FIXtqXKKG1aBjTDR9iln-2" target="UNwPtMYkR0rYs0qdX-2g-1" edge="1">
          <mxGeometry width="50" height="50" relative="1" as="geometry">
            <mxPoint x="380" y="190" as="sourcePoint" />
            <mxPoint x="430" y="140" as="targetPoint" />
          </mxGeometry>
        </mxCell>
        <mxCell id="UNwPtMYkR0rYs0qdX-2g-3" value="AUTHENTICATION" style="text;html=1;strokeColor=none;fillColor=none;align=center;verticalAlign=middle;whiteSpace=wrap;rounded=0;" parent="1" vertex="1">
          <mxGeometry x="395" y="120" width="60" height="30" as="geometry" />
        </mxCell>
        <mxCell id="UNwPtMYkR0rYs0qdX-2g-4" value="" style="rounded=0;whiteSpace=wrap;html=1;" parent="1" vertex="1">
          <mxGeometry x="370" y="465" width="120" height="60" as="geometry" />
        </mxCell>
        <mxCell id="UNwPtMYkR0rYs0qdX-2g-5" value="" style="endArrow=classic;startArrow=classic;html=1;rounded=0;" parent="1" source="UNwPtMYkR0rYs0qdX-2g-4" edge="1">
          <mxGeometry width="50" height="50" relative="1" as="geometry">
            <mxPoint x="429.5" y="500" as="sourcePoint" />
            <mxPoint x="429.5" y="390" as="targetPoint" />
          </mxGeometry>
        </mxCell>
        <mxCell id="UNwPtMYkR0rYs0qdX-2g-6" value="CHAT" style="text;html=1;strokeColor=none;fillColor=none;align=center;verticalAlign=middle;whiteSpace=wrap;rounded=0;" parent="1" vertex="1">
          <mxGeometry x="400" y="480" width="60" height="30" as="geometry" />
        </mxCell>
        <mxCell id="UNwPtMYkR0rYs0qdX-2g-7" value="" style="rounded=0;whiteSpace=wrap;html=1;" parent="1" vertex="1">
          <mxGeometry x="590" y="330" width="120" height="60" as="geometry" />
        </mxCell>
        <mxCell id="UNwPtMYkR0rYs0qdX-2g-8" value="" style="endArrow=classic;startArrow=classic;html=1;rounded=0;exitX=1;exitY=0.5;exitDx=0;exitDy=0;entryX=0;entryY=0.5;entryDx=0;entryDy=0;" parent="1" source="FIXtqXKKG1aBjTDR9iln-2" target="UNwPtMYkR0rYs0qdX-2g-7" edge="1">
          <mxGeometry width="50" height="50" relative="1" as="geometry">
            <mxPoint x="629.5" y="270" as="sourcePoint" />
            <mxPoint x="629.5" y="160" as="targetPoint" />
          </mxGeometry>
        </mxCell>
        <mxCell id="UNwPtMYkR0rYs0qdX-2g-9" value="USER MANAGEMENT" style="text;html=1;strokeColor=none;fillColor=none;align=center;verticalAlign=middle;whiteSpace=wrap;rounded=0;" parent="1" vertex="1">
          <mxGeometry x="620" y="345" width="60" height="30" as="geometry" />
        </mxCell>
        <mxCell id="UNwPtMYkR0rYs0qdX-2g-14" value="" style="rounded=0;whiteSpace=wrap;html=1;" parent="1" vertex="1">
          <mxGeometry x="180" y="175" width="120" height="60" as="geometry" />
        </mxCell>
        <mxCell id="UNwPtMYkR0rYs0qdX-2g-15" value="" style="endArrow=classic;startArrow=classic;html=1;rounded=0;exitX=1;exitY=1;exitDx=0;exitDy=0;entryX=0;entryY=0;entryDx=0;entryDy=0;" parent="1" source="UNwPtMYkR0rYs0qdX-2g-14" target="FIXtqXKKG1aBjTDR9iln-2" edge="1">
          <mxGeometry width="50" height="50" relative="1" as="geometry">
            <mxPoint x="280" y="319.5" as="sourcePoint" />
            <mxPoint x="350" y="319.5" as="targetPoint" />
          </mxGeometry>
        </mxCell>
        <mxCell id="UNwPtMYkR0rYs0qdX-2g-16" value="TRIP&amp;nbsp;&lt;br&gt;MANAGEMENT" style="text;html=1;strokeColor=none;fillColor=none;align=center;verticalAlign=middle;whiteSpace=wrap;rounded=0;" parent="1" vertex="1">
          <mxGeometry x="210" y="190" width="60" height="30" as="geometry" />
        </mxCell>
        <mxCell id="Ku8ji7ifTZMvTcs6ZBVA-1" value="" style="rounded=0;whiteSpace=wrap;html=1;" parent="1" vertex="1">
          <mxGeometry x="560" y="170" width="120" height="60" as="geometry" />
        </mxCell>
        <mxCell id="Ku8ji7ifTZMvTcs6ZBVA-2" value="TRAIL" style="text;html=1;strokeColor=none;fillColor=none;align=center;verticalAlign=middle;whiteSpace=wrap;rounded=0;" parent="1" vertex="1">
          <mxGeometry x="590" y="185" width="60" height="30" as="geometry" />
        </mxCell>
        <mxCell id="Ku8ji7ifTZMvTcs6ZBVA-7" value="" style="endArrow=classic;startArrow=classic;html=1;rounded=0;exitX=0;exitY=1;exitDx=0;exitDy=0;entryX=1;entryY=0;entryDx=0;entryDy=0;" parent="1" source="Ku8ji7ifTZMvTcs6ZBVA-1" target="FIXtqXKKG1aBjTDR9iln-2" edge="1">
          <mxGeometry width="50" height="50" relative="1" as="geometry">
            <mxPoint x="510" y="270" as="sourcePoint" />
            <mxPoint x="510" y="280" as="targetPoint" />
          </mxGeometry>
        </mxCell>
        <mxCell id="Ku8ji7ifTZMvTcs6ZBVA-12" value="" style="rounded=0;whiteSpace=wrap;html=1;" parent="1" vertex="1">
          <mxGeometry x="170" y="350" width="120" height="60" as="geometry" />
        </mxCell>
        <mxCell id="Ku8ji7ifTZMvTcs6ZBVA-15" value="SEARCH DESTINATION" style="text;html=1;strokeColor=none;fillColor=none;align=center;verticalAlign=middle;whiteSpace=wrap;rounded=0;" parent="1" vertex="1">
          <mxGeometry x="200" y="365" width="60" height="30" as="geometry" />
        </mxCell>
        <mxCell id="Ku8ji7ifTZMvTcs6ZBVA-16" value="" style="endArrow=classic;startArrow=classic;html=1;rounded=0;exitX=1;exitY=0;exitDx=0;exitDy=0;" parent="1" source="Ku8ji7ifTZMvTcs6ZBVA-12" target="FIXtqXKKG1aBjTDR9iln-2" edge="1">
          <mxGeometry width="50" height="50" relative="1" as="geometry">
            <mxPoint x="300" y="410" as="sourcePoint" />
            <mxPoint x="350" y="360" as="targetPoint" />
          </mxGeometry>
        </mxCell>
        <mxCell id="Ku8ji7ifTZMvTcs6ZBVA-20" value="" style="rounded=0;whiteSpace=wrap;html=1;" parent="1" vertex="1">
          <mxGeometry x="140" y="600" width="570" height="60" as="geometry" />
        </mxCell>
        <mxCell id="Ku8ji7ifTZMvTcs6ZBVA-21" value="&lt;h2&gt;Zero Level DFD - VAGA TRIP APP&lt;/h2&gt;" style="text;html=1;strokeColor=none;fillColor=none;align=center;verticalAlign=middle;whiteSpace=wrap;rounded=0;" parent="1" vertex="1">
          <mxGeometry x="191" y="615" width="490" height="30" as="geometry" />
        </mxCell>
      </root>
    </mxGraphModel>
  </diagram>
</mxfile>
